<svg xmlns="http://www.w3.org/2000/svg" viewBox="0 0 24 24" fill="none" stroke="currentColor" stroke-width="1.8" stroke-linecap="round" stroke-linejoin="round">
  <!-- left hand -->
  <path d="M5 12V9c0-1.2.8-2 2-2 .8 0 1.5.5 1.8 1.2"/>
  <path d="M5 12v3c0 1 1 2 2 2h1"/>
  <path d="M5 9V7c0-.8.5-1.5 1.2-1.8"/>
  <!-- right hand (mirror) -->
  <path d="M19 12V9c0-1.2-.8-2-2-2-.8 0-1.5.5-1.8 1.2"/>
  <path d="M19 12v3c0 1-1 2-2 2h-1"/>
  <path d="M19 9V7c0-.8-.5-1.5-1.2-1.8"/>
  <!-- center: tool/action -->
  <rect x="10" y="9" width="4" height="6" rx="1"/>
</svg>
